# xmcd
#
# Track frame offsets:
# 150
# 16200
# 32475
# 44025
# 60000
# 71025
# 104025
# 119325
# 133875
# 150975
# 166575
# 182850
#
# Disc length: 2621 seconds
#
#
# Revision: 2
# Processed by: cddbd v1.5.2PL0 Copyright (c) Steve Scherf et al.
# Submitted via: KELLER's_Musik_Katalog 2006 
#
DISCID=9b0a3b0c
DTITLE=Various Artist - Ichiban Blues At Christmas - Volume 4
DYEAR=1997
DGENRE=weihnachtsmusik - Blues
TTITLE0=FRANCINE REED - Go Tell It On the Mountain
TTITLE1=THEODIS EALEY - The Reason For The Season
TTITLE2=THE EXCELLOS - Santa, I Want A Stratocaster
TTITLE3=JERRY BUTLER - Little Red Shoes
TTITLE4=SANDRA HALL - Christmas Just For Me
TTITLE5=BOB THOMPSON - Angels We Have Heard On High
TTITLE6=WILLIE HILL - Christmas Snow
TTITLE7=THE SHADOWS - Santa Ain't Jivin'
TTITLE8=JIMMY DAWKINS and FRANCINE REED - Thank God For Mama
TTITLE9=BLUES BOY BILLIE - Christmas Pretty Baby
TTITLE10=RICK HUFF - Red And Green Christmas Blues
TTITLE11=VERNON GARRETT - Please Come Home For Christmas
EXTD=Label: Ichiban Records\nBestellnummer: ICH 1193-2\nFirma: (US-Import]\nEVOE: 1997\nLABEL =Ichiban Records\nID =ICH1193-2\nUPC =019011-1193-28\nCOPYRIGHT=1997\n*****\nYEAR: 1997\n ID3G:   0\n\n\n Für freedb bereitgestelt von:\n    KELLER'S 
EXTD=Musik-Katalog 2007 
EXTT0=
EXTT1=
EXTT2=
EXTT3=
EXTT4=
EXTT5=
EXTT6=
EXTT7=
EXTT8=
EXTT9=
EXTT10=
EXTT11=
PLAYORDER=
